<svg width="206" height="303" viewBox="0 0 206 303" fill="none" xmlns="http://www.w3.org/2000/svg">
<ellipse cx="65" cy="25" rx="25" ry="25" transform="rotate(-180 65 25)" fill="#10DCAB"/>
<path d="M22.3012 160.815C11.5911 180.137 15.9056 209.293 35.2272 220.003L183.91 302.419C194.318 283.091 190.162 253.862 170.987 243.233L22.3012 160.815Z" fill="#012B51"/>
<path d="M88 64C65.9086 64 42.5 84.3817 42.5 109.524L42.5 302.997C64.4506 302.692 88 282.429 88 257.476L88 64Z" fill="#10DCAB"/>
<path d="M22.4941 206.815C11.6913 187.545 15.8659 158.369 35.1358 147.566L183.421 64.4376C193.922 83.7154 189.907 112.964 170.782 123.685L22.4941 206.815Z" fill="#8BE67D"/>
</svg>
